<svg fill="none" height="1080" width="1080" xmlns="http://www.w3.org/2000/svg"><path d="M729.796 386.21l-67.78 319.65c-5.114 22.56-18.449 28.172-37.4 17.548l-103.274-76.104-49.83 47.927c-5.514 5.514-10.128 10.128-20.756 10.128l7.42-105.181 191.407-172.959c8.324-7.42-1.804-11.531-12.934-4.111L400.021 572.103l-101.87-31.883c-22.159-6.92-22.558-22.16 4.612-32.787l398.456-153.509c18.448-6.917 34.591 4.111 28.577 32.286z" fill="url(#paint0_linear)"/><rect height="760" rx="380" stroke="url(#paint1_linear)" stroke-width="27" width="760" x="157.5" y="159.5"/><defs><linearGradient gradientUnits="userSpaceOnUse" id="paint0_linear" x1="468.5" x2="710.864" y1="286.5" y2="883.047"><stop stop-color="#6BBFEC" stop-opacity=".7"/><stop offset="1" stop-color="#21A0E1"/></linearGradient><linearGradient gradientUnits="userSpaceOnUse" id="paint1_linear" x1="346" x2="700.902" y1="191" y2="900.799"><stop stop-color="#77C4ED"/><stop offset="1" stop-color="#20A0E1"/></linearGradient></defs></svg>